<mxfile host="app.diagrams.net" modified="2023-09-27T16:25:19.594Z" agent="Mozilla/5.0 (Windows NT 10.0; Win64; x64; rv:109.0) Gecko/20100101 Firefox/117.0" etag="cWok8UzcWsTcket_d7gg" version="21.8.2" type="device">
  <diagram id="C5RBs43oDa-KdzZeNtuy" name="Page-1">
    <mxGraphModel dx="1898" dy="862" grid="1" gridSize="10" guides="1" tooltips="1" connect="1" arrows="1" fold="1" page="1" pageScale="1" pageWidth="827" pageHeight="1169" math="0" shadow="0">
      <root>
        <mxCell id="WIyWlLk6GJQsqaUBKTNV-0" />
        <mxCell id="WIyWlLk6GJQsqaUBKTNV-1" parent="WIyWlLk6GJQsqaUBKTNV-0" />
        <mxCell id="GRbMy3bL4gG7srACkzMk-0" value="ENTRY" style="text;html=1;align=center;verticalAlign=middle;resizable=0;points=[];autosize=1;strokeColor=none;fillColor=none;" vertex="1" parent="WIyWlLk6GJQsqaUBKTNV-1">
          <mxGeometry x="177" y="108" width="70" height="30" as="geometry" />
        </mxCell>
        <mxCell id="GRbMy3bL4gG7srACkzMk-4" value="" style="edgeStyle=orthogonalEdgeStyle;rounded=0;orthogonalLoop=1;jettySize=auto;html=1;" edge="1" parent="WIyWlLk6GJQsqaUBKTNV-1" source="GRbMy3bL4gG7srACkzMk-1" target="GRbMy3bL4gG7srACkzMk-3">
          <mxGeometry relative="1" as="geometry" />
        </mxCell>
        <mxCell id="GRbMy3bL4gG7srACkzMk-1" value="&lt;font style=&quot;font-size: 14px;&quot;&gt;parameters(craftedItem)&lt;/font&gt;" style="ellipse;whiteSpace=wrap;html=1;" vertex="1" parent="WIyWlLk6GJQsqaUBKTNV-1">
          <mxGeometry x="100" y="170" width="160" height="100" as="geometry" />
        </mxCell>
        <mxCell id="GRbMy3bL4gG7srACkzMk-2" value="" style="endArrow=classic;html=1;rounded=0;entryX=0.5;entryY=0;entryDx=0;entryDy=0;" edge="1" parent="WIyWlLk6GJQsqaUBKTNV-1" target="GRbMy3bL4gG7srACkzMk-1">
          <mxGeometry width="50" height="50" relative="1" as="geometry">
            <mxPoint x="180" y="90" as="sourcePoint" />
            <mxPoint x="440" y="420" as="targetPoint" />
          </mxGeometry>
        </mxCell>
        <mxCell id="GRbMy3bL4gG7srACkzMk-6" value="" style="edgeStyle=orthogonalEdgeStyle;rounded=0;orthogonalLoop=1;jettySize=auto;html=1;" edge="1" parent="WIyWlLk6GJQsqaUBKTNV-1" source="GRbMy3bL4gG7srACkzMk-3" target="GRbMy3bL4gG7srACkzMk-5">
          <mxGeometry relative="1" as="geometry" />
        </mxCell>
        <mxCell id="GRbMy3bL4gG7srACkzMk-9" style="edgeStyle=orthogonalEdgeStyle;rounded=0;orthogonalLoop=1;jettySize=auto;html=1;entryX=0;entryY=0.5;entryDx=0;entryDy=0;" edge="1" parent="WIyWlLk6GJQsqaUBKTNV-1" source="GRbMy3bL4gG7srACkzMk-3" target="GRbMy3bL4gG7srACkzMk-7">
          <mxGeometry relative="1" as="geometry">
            <Array as="points">
              <mxPoint x="180" y="655" />
            </Array>
          </mxGeometry>
        </mxCell>
        <mxCell id="GRbMy3bL4gG7srACkzMk-3" value="&lt;font style=&quot;font-size: 18px;&quot;&gt;craftedItems == null&lt;/font&gt;" style="rhombus;whiteSpace=wrap;html=1;" vertex="1" parent="WIyWlLk6GJQsqaUBKTNV-1">
          <mxGeometry x="103.5" y="340" width="153" height="140" as="geometry" />
        </mxCell>
        <mxCell id="GRbMy3bL4gG7srACkzMk-8" style="edgeStyle=orthogonalEdgeStyle;rounded=0;orthogonalLoop=1;jettySize=auto;html=1;entryX=0.5;entryY=0;entryDx=0;entryDy=0;" edge="1" parent="WIyWlLk6GJQsqaUBKTNV-1" source="GRbMy3bL4gG7srACkzMk-5" target="GRbMy3bL4gG7srACkzMk-7">
          <mxGeometry relative="1" as="geometry" />
        </mxCell>
        <mxCell id="GRbMy3bL4gG7srACkzMk-5" value="&lt;font style=&quot;font-size: 18px;&quot;&gt;Create a List named craftedItems&lt;/font&gt;" style="rounded=0;whiteSpace=wrap;html=1;" vertex="1" parent="WIyWlLk6GJQsqaUBKTNV-1">
          <mxGeometry x="330" y="375" width="210" height="70" as="geometry" />
        </mxCell>
        <mxCell id="GRbMy3bL4gG7srACkzMk-11" value="" style="edgeStyle=orthogonalEdgeStyle;rounded=0;orthogonalLoop=1;jettySize=auto;html=1;" edge="1" parent="WIyWlLk6GJQsqaUBKTNV-1" source="GRbMy3bL4gG7srACkzMk-7" target="GRbMy3bL4gG7srACkzMk-10">
          <mxGeometry relative="1" as="geometry" />
        </mxCell>
        <mxCell id="GRbMy3bL4gG7srACkzMk-7" value="&lt;font size=&quot;3&quot;&gt;Add craftedItem to craftedItems&lt;br&gt;&lt;/font&gt;" style="rounded=0;whiteSpace=wrap;html=1;" vertex="1" parent="WIyWlLk6GJQsqaUBKTNV-1">
          <mxGeometry x="315" y="610" width="240" height="90" as="geometry" />
        </mxCell>
        <mxCell id="GRbMy3bL4gG7srACkzMk-10" value="&lt;font style=&quot;font-size: 24px;&quot;&gt;END&lt;/font&gt;" style="ellipse;whiteSpace=wrap;html=1;" vertex="1" parent="WIyWlLk6GJQsqaUBKTNV-1">
          <mxGeometry x="330" y="800" width="210" height="90" as="geometry" />
        </mxCell>
        <mxCell id="GRbMy3bL4gG7srACkzMk-12" value="&lt;font style=&quot;font-size: 18px;&quot;&gt;TRUE&lt;/font&gt;" style="text;html=1;align=center;verticalAlign=middle;resizable=0;points=[];autosize=1;strokeColor=none;fillColor=none;" vertex="1" parent="WIyWlLk6GJQsqaUBKTNV-1">
          <mxGeometry x="247" y="373" width="70" height="40" as="geometry" />
        </mxCell>
        <mxCell id="GRbMy3bL4gG7srACkzMk-13" value="&lt;font style=&quot;font-size: 18px;&quot;&gt;FALSE&lt;/font&gt;" style="text;html=1;align=center;verticalAlign=middle;resizable=0;points=[];autosize=1;strokeColor=none;fillColor=none;" vertex="1" parent="WIyWlLk6GJQsqaUBKTNV-1">
          <mxGeometry x="97" y="523" width="80" height="40" as="geometry" />
        </mxCell>
      </root>
    </mxGraphModel>
  </diagram>
</mxfile>
